<?xml version="1.0" encoding="UTF-8" standalone="no"?>
<!-- Created with Inkscape (http://www.inkscape.org/) -->

<svg
   version="1.1"
   id="svg188"
   width="2933.3333"
   height="2933.3333"
   viewBox="0 0 2933.3333 2933.3333"
   xmlns="http://www.w3.org/2000/svg"
   xmlns:svg="http://www.w3.org/2000/svg">
   <defs
      id="defs192" />
   <g
      id="g196"
      transform="matrix(1.3333333,0,0,-1.3333333,0,2933.3333)">
      <g
         id="g198"
         transform="scale(0.1)">
         <path
            d="m 19341.9,12273.7 c -24.5,1910.6 -622.5,3822.6 -1779.7,5353.8 -185.4,246.3 -386,481.7 -598.9,706.2 -399.9,434 -991.1,998.1 -1646.9,1431.2 0,0 -429,-1136.3 -429.1,-1136.2 C 14119.9,16528 12354,14950.6 10318.7,14075.1 9698.77,13806.5 9066.75,13587.4 8439.08,13314.5 7420.8,12879.1 6424.39,12341.4 5576.8,11617.3 3888.58,10193.8 3088.71,8222 3141.68,6031.7 c 295.07,1938.3 1103.8,3602.2 2708.9,4776.8 1211.33,895.2 2649.47,1363.6 4084.71,1781.2 379.51,112.1 772.71,232.3 1146.61,374 1978.1,727.4 3710,2036.5 4823.8,3809.3 129.4,-170.7 250.4,-347.8 362.2,-530.3 570.5,-927.9 916.3,-1986.9 1030.4,-3069.5 234.5,-2287 -496.5,-5117.7 -2093.6,-6786.1 -655.2,-667.9 -1499.4,-1111.4 -2388.8,-1394.8 -959.1,-306.8 -1976.8,-444.8 -2989.01,-508.2 -1350.56,-83 -2713.62,-62.4 -4067.67,-168.3 1395.19,1719.3 3527.08,2788.3 5361.98,4066.1 1108.7,763.2 2168,1636.7 2959.6,2736.4 490.8,679.3 878.9,1442.7 1066,2262.4 36.1,162 65.6,324.7 85.3,488.2 -12.9,-39.1 -25.4,-78.2 -39.1,-117 -91.8,-269.9 -206.7,-533.3 -338,-785.5 -597.1,-1139.2 -1545.4,-2053.6 -2587.8,-2784.5 C 10925.8,9249.2 9447.25,8601.6 8011.12,7818.8 6640.11,7074.4 5326.98,6207.4 4302.24,4998.7 c -235.1,-279.1 -452.66,-574.9 -646.59,-886.1 -226.4,-352.9 -784.44,-1480.4 -998.92,-1877.5 932.63,122.6 2213.87,321.5 3154.64,332.8 1417.58,42.7 2893.3,-49.7 4318.23,9.3 4035.1,169.1 6988.7,1553.1 8465.1,5508.6 499.3,1335.1 770.5,2760.7 747.2,4187.9"
            style="fill:#017a0f;fill-opacity:1;fill-rule:nonzero;stroke:none"
            id="path202" />
      </g>
   </g>
</svg>